<svg width="24" height="24" viewBox="0 0 24 24" fill="none" xmlns="http://www.w3.org/2000/svg">
<path d="M19.6031 8.30615C19.35 8.22178 19.0969 8.14209 18.8438 8.06709C18.8859 7.89365 18.9234 7.72021 18.9609 7.54678C19.5375 4.75303 19.1578 2.50771 17.8781 1.76709C16.6453 1.05928 14.6344 1.79521 12.6 3.56709C12.3984 3.74053 12.2016 3.92334 12.0141 4.10615C11.8875 3.98428 11.7563 3.8624 11.625 3.74521C9.49219 1.85146 7.35469 1.05459 6.075 1.7999C4.84688 2.5124 4.48125 4.62646 4.99687 7.27022C5.04844 7.53271 5.10469 7.79053 5.17031 8.05303C4.87031 8.1374 4.575 8.23115 4.29844 8.32959C1.79531 9.19678 0 10.5655 0 11.9812C0 13.4437 1.9125 14.9108 4.51406 15.8015C4.725 15.8718 4.93594 15.9421 5.15156 16.003C5.08125 16.2843 5.02031 16.5608 4.96406 16.8468C4.47188 19.4483 4.85625 21.5108 6.08438 22.2187C7.35 22.9499 9.47812 22.1999 11.55 20.3858C11.7141 20.2405 11.8781 20.0905 12.0422 19.9312C12.2484 20.1327 12.4641 20.3249 12.6797 20.5124C14.6859 22.2374 16.6688 22.9358 17.8922 22.228C19.1578 21.4968 19.5703 19.2796 19.0359 16.5796C18.9937 16.3733 18.9469 16.1624 18.8953 15.9468C19.0453 15.9046 19.1906 15.8577 19.3359 15.8108C22.0406 14.9155 24 13.4671 24 11.9812C24 10.5608 22.1531 9.18271 19.6031 8.30615ZM13.2609 4.32646C15.0047 2.80771 16.6313 2.2124 17.3719 2.63896C18.1641 3.09365 18.4688 4.93115 17.9719 7.34521C17.9391 7.50459 17.9062 7.65928 17.8641 7.81396C16.8234 7.57959 15.7687 7.41084 14.7094 7.31709C14.1 6.44521 13.4344 5.61084 12.7125 4.82803C12.8953 4.65459 13.0734 4.49053 13.2609 4.32646ZM7.8375 14.414C8.07656 14.8218 8.32031 15.2296 8.57812 15.628C7.84688 15.5483 7.12031 15.4312 6.40313 15.2765C6.60938 14.6015 6.86719 13.903 7.16719 13.1905C7.38281 13.603 7.60312 14.0108 7.8375 14.414ZM6.41719 8.7749C7.09219 8.6249 7.80937 8.50303 8.55469 8.40928C8.30625 8.79834 8.0625 9.19678 7.83281 9.5999C7.60313 9.99834 7.37812 10.4062 7.16719 10.8187C6.87187 10.1202 6.62344 9.43584 6.41719 8.7749ZM7.70156 12.0046C8.01094 11.3577 8.34844 10.7249 8.70469 10.1015C9.06094 9.47803 9.44531 8.87334 9.84844 8.27803C10.5516 8.22646 11.2688 8.19834 12 8.19834C12.7312 8.19834 13.4531 8.22646 14.1516 8.27803C14.55 8.86865 14.9297 9.47334 15.2906 10.0921C15.6516 10.7108 15.9891 11.3437 16.3078 11.9858C15.9937 12.6327 15.6562 13.2702 15.2953 13.8983C14.9391 14.5218 14.5594 15.1265 14.1609 15.7265C13.4625 15.778 12.7359 15.8015 12 15.8015C11.2641 15.8015 10.5516 15.778 9.8625 15.7358C9.45469 15.1405 9.07031 14.5312 8.70938 13.9077C8.34844 13.2843 8.01562 12.6515 7.70156 12.0046ZM16.1672 14.4046C16.4062 13.9921 16.6313 13.5749 16.8516 13.153C17.1516 13.8327 17.4141 14.5218 17.6437 15.2296C16.9172 15.3937 16.1812 15.5202 15.4406 15.6046C15.6937 15.2108 15.9328 14.8077 16.1672 14.4046ZM16.8422 10.8187C16.6219 10.4062 16.3969 9.99365 16.1625 9.59053C15.9328 9.19209 15.6938 8.79834 15.4453 8.40928C16.2 8.50303 16.9219 8.62959 17.5969 8.78428C17.3813 9.47803 17.1281 10.153 16.8422 10.8187ZM12.0094 5.54521C12.5016 6.07959 12.9656 6.64209 13.3969 7.22334C12.4687 7.18115 11.5359 7.18115 10.6078 7.22334C11.0672 6.61865 11.5406 6.05615 12.0094 5.54521ZM6.57187 2.67178C7.35938 2.2124 9.10781 2.86865 10.95 4.4999C11.0672 4.60303 11.1844 4.71553 11.3062 4.82803C10.5797 5.61084 9.90938 6.44521 9.29531 7.31709C8.23594 7.41084 7.18594 7.5749 6.14531 7.80459C6.08438 7.56553 6.03281 7.32178 5.98125 7.07803C5.54063 4.80928 5.83125 3.09834 6.57187 2.67178ZM5.42344 15.028C5.22656 14.9718 5.03438 14.9108 4.84219 14.8452C3.84375 14.5312 2.70937 14.0343 1.88906 13.3827C1.41562 13.0546 1.09687 12.5483 1.00781 11.9812C1.00781 11.1233 2.48906 10.0265 4.62656 9.28115C4.89375 9.1874 5.16563 9.10303 5.4375 9.02334C5.75625 10.0405 6.14062 11.039 6.58594 12.0046C6.13594 12.9843 5.74687 13.9968 5.42344 15.028ZM10.8891 19.6218C10.1156 20.3296 9.22031 20.8921 8.24531 21.2765C7.725 21.5249 7.125 21.5483 6.59063 21.3374C5.84531 20.9062 5.53594 19.2515 5.95781 17.0249C6.00938 16.7624 6.06563 16.4999 6.13125 16.2421C7.18125 16.4671 8.24062 16.6218 9.31406 16.7015C9.93281 17.578 10.6125 18.4171 11.3391 19.2046C11.1891 19.3499 11.0391 19.4905 10.8891 19.6218ZM12.0375 18.4827C11.5594 17.9671 11.0813 17.3952 10.6172 16.7812C11.0672 16.7999 11.5312 16.8093 12 16.8093C12.4828 16.8093 12.9562 16.7999 13.425 16.7765C12.9937 17.3718 12.5297 17.939 12.0375 18.4827ZM18.1641 19.889C18.1219 20.4608 17.8406 20.9952 17.3906 21.3562C16.6453 21.7874 15.0563 21.2249 13.3406 19.753C13.1438 19.5843 12.9469 19.4015 12.7453 19.214C13.4625 18.4218 14.1234 17.5827 14.7234 16.7015C15.7969 16.6124 16.8656 16.4483 17.9203 16.2093C17.9672 16.4015 18.0094 16.5937 18.0469 16.7812C18.2766 17.7937 18.3141 18.8483 18.1641 19.889ZM19.0172 14.8499C18.8859 14.8921 18.7547 14.9343 18.6188 14.9718C18.2906 13.9499 17.8875 12.9515 17.4234 11.9812C17.8734 11.0249 18.2531 10.0405 18.5719 9.03271C18.8156 9.10303 19.05 9.17803 19.275 9.25303C21.4594 10.003 22.9922 11.1187 22.9922 11.9718C22.9922 12.8905 21.3563 14.0765 19.0172 14.8499ZM12 14.1468C13.1859 14.1468 14.1469 13.1858 14.1469 11.9999C14.1469 10.814 13.1859 9.85303 12 9.85303C10.8141 9.85303 9.85312 10.814 9.85312 11.9999C9.85312 13.1858 10.8141 14.1468 12 14.1468Z" fill="#01D1F7"/>
</svg>
