<svg width="28" height="24" viewBox="0 0 28 24" fill="none" xmlns="http://www.w3.org/2000/svg">
<path d="M13.2056 17.7617C13.1925 17.7898 13.1793 17.8123 13.2056 17.7617V17.7617ZM24.105 13.6836C23.2251 13.6832 22.3569 13.8998 21.5675 14.3164C21.3094 13.7586 21.0425 13.2711 20.9988 12.9054C20.9463 12.4789 20.8894 12.2257 20.9507 11.7195C21.0119 11.2132 21.2875 10.4961 21.2832 10.4445C21.2788 10.3929 21.2219 10.1351 20.6575 10.1304C20.0932 10.1257 19.6075 10.2476 19.5511 10.407C19.4514 10.6982 19.3739 10.9977 19.3192 11.3023C19.2186 11.8507 18.1909 13.8101 17.609 14.832C17.4165 14.4336 17.2547 14.082 17.2197 13.8007C17.1672 13.3742 17.1103 13.1211 17.1715 12.6148C17.2328 12.1086 17.5084 11.3914 17.504 11.3398C17.4997 11.2882 17.4428 11.0304 16.8788 11.0257C16.3149 11.0211 15.8288 11.1429 15.772 11.3023C15.7151 11.4617 15.6538 11.8367 15.5401 12.1976C15.4263 12.5586 14.0574 15.8211 13.6991 16.6695C13.5153 17.1007 13.3578 17.4476 13.2441 17.682C13.2266 17.7195 13.2135 17.7429 13.2047 17.7617C13.2178 17.7382 13.2266 17.7148 13.2266 17.7242C13.1303 17.9257 13.0735 18.0382 13.0735 18.0382V18.0429C12.9991 18.1929 12.916 18.3289 12.8766 18.3289C12.8503 18.3289 12.7935 17.9351 12.8897 17.3961C13.0953 16.2617 13.581 14.4992 13.5766 14.4382C13.5722 14.4054 13.6685 14.1007 13.2572 13.9367C12.8591 13.782 12.7147 14.0398 12.6797 14.0398C12.6447 14.0398 12.6185 14.1336 12.6185 14.1336C12.6185 14.1336 13.0603 12.1461 11.7702 12.1461C10.9652 12.1461 9.84515 13.0929 9.29478 13.9507C8.94915 14.1523 8.20103 14.5882 7.41353 15.0523C7.11165 15.2304 6.80103 15.4132 6.5079 15.5867C6.48603 15.5632 6.46853 15.5398 6.44665 15.5164C4.88084 13.7257 1.98984 12.4601 2.11234 10.0554C2.15609 9.17886 2.44046 6.8773 7.67165 4.08355C11.9592 1.79605 15.387 2.42418 15.9772 3.82105C16.8259 5.81324 14.1445 9.52105 9.69203 10.0554C7.99496 10.257 7.1029 9.55386 6.87978 9.29136C6.6479 9.0148 6.6129 9.00074 6.5254 9.0523C6.38103 9.13668 6.4729 9.38043 6.5254 9.52574C6.65665 9.89605 7.20353 10.5523 8.13496 10.8804C8.95309 11.1664 10.9428 11.3257 13.3487 10.3273C16.0515 9.21168 18.1555 6.10386 17.5386 3.5023C16.9103 0.858551 12.8188 -0.00863647 8.95003 1.46324C6.64484 2.3398 4.15196 3.71793 2.35865 5.51324C0.228463 7.65074 -0.112349 9.51168 0.0276508 10.2898C0.525963 13.0507 4.07759 14.8507 5.49903 16.182C5.42903 16.2242 5.3634 16.2617 5.30215 16.2992C4.58946 16.6789 1.88178 18.1976 1.20409 19.8007C0.438463 21.6195 1.33096 22.9226 1.91678 23.1007C3.74509 23.6445 5.61715 22.6648 6.62296 21.057C7.62878 19.4492 7.50671 17.3492 7.04296 16.3929C7.03859 16.3789 7.02984 16.3695 7.02546 16.3554C7.20921 16.2382 7.39734 16.1211 7.58546 16.0039C7.94815 15.7742 8.30253 15.5632 8.61315 15.3804C8.43815 15.8867 8.31128 16.4961 8.24565 17.3773C8.1669 18.4086 8.56503 19.7445 9.08128 20.2695C9.30878 20.4992 9.58396 20.5039 9.75459 20.5039C10.3583 20.5039 10.6296 19.9695 10.931 19.332C11.3029 18.5539 11.631 17.6492 11.631 17.6492C11.631 17.6492 11.2198 20.0961 12.3442 20.0961C12.755 20.0961 13.1662 19.5289 13.3504 19.2382V19.2429C13.3504 19.2429 13.3592 19.2242 13.381 19.1867C13.4248 19.1164 13.4467 19.0742 13.4467 19.0742V19.0601C13.6129 18.7554 13.976 18.057 14.5225 16.9039C15.2312 15.4132 15.9089 13.5523 15.9089 13.5523C15.9744 13.9614 16.065 14.3654 16.1802 14.7617C16.3027 15.207 16.5608 15.6945 16.7664 16.1679C16.6002 16.4117 16.4995 16.5523 16.4995 16.5523C16.4998 16.5559 16.5014 16.5592 16.5039 16.5617C16.3727 16.7492 16.2239 16.9507 16.0708 17.1476C15.5112 17.8601 14.8458 18.6757 14.7583 18.9101C14.6533 19.1867 14.6795 19.3929 14.8808 19.5523C15.0295 19.6742 15.292 19.6929 15.5672 19.6695C16.0703 19.632 16.4247 19.5007 16.5953 19.4164C16.9099 19.2955 17.2072 19.1283 17.4787 18.9195C18.0255 18.4882 18.358 17.8695 18.3274 17.0539C18.3099 16.6039 18.1743 16.1539 18.008 15.732C18.0562 15.657 18.1087 15.5773 18.1568 15.4976C19.0226 14.1429 19.692 12.6561 19.692 12.6561C19.7575 13.0651 19.8481 13.4691 19.9632 13.8654C20.0682 14.2451 20.2734 14.6623 20.4615 15.0701C19.6482 15.7779 19.1451 16.5982 18.9701 17.1373C18.6463 18.1357 18.9001 18.5857 19.377 18.6889C19.5913 18.7357 19.8976 18.6279 20.1251 18.5248C20.463 18.4042 20.7815 18.2287 21.0697 18.0045C21.6165 17.5732 22.1455 16.9686 22.1105 16.1482C22.0973 15.7779 22.0011 15.4076 21.8742 15.0514C22.5611 14.742 23.4532 14.5732 24.5907 14.7139C27.0267 15.0186 27.5035 16.6498 27.4117 17.3295C27.3198 18.0092 26.8079 18.3889 26.6373 18.5014C26.4667 18.6139 26.4142 18.6561 26.4273 18.7404C26.4492 18.8623 26.5279 18.8576 26.6723 18.8295C26.8735 18.792 27.9493 18.2764 27.9975 17.0154C28.0675 15.4217 26.6373 13.6686 24.1037 13.6826L24.105 13.6836ZM5.3284 20.4664C4.52384 21.4086 3.39509 21.7648 2.9099 21.4648C2.38928 21.1404 2.5949 19.7539 3.58759 18.7498C4.19134 18.1404 4.96965 17.5779 5.4859 17.2311C5.60403 17.1561 5.77465 17.0436 5.98465 16.9076C6.01965 16.8842 6.03715 16.8748 6.03715 16.8748C6.07653 16.8467 6.12028 16.8232 6.16403 16.7951C6.52671 18.2201 6.17715 19.4764 5.3284 20.4654V20.4664ZM11.2067 16.182C10.9267 16.9179 10.3365 18.7929 9.97771 18.6945C9.67146 18.6101 9.48334 17.1804 9.91646 15.7742C10.1352 15.0664 10.599 14.2226 10.8746 13.8945C11.316 13.3648 11.8017 13.1961 11.9154 13.407C12.0685 13.6836 11.3817 15.7226 11.2067 16.182ZM16.0629 18.6664C15.9448 18.732 15.8354 18.7742 15.7829 18.7414C15.7435 18.7179 15.831 18.6289 15.831 18.6289C15.831 18.6289 16.4392 17.9304 16.6798 17.6117C16.8198 17.4242 16.9817 17.2039 17.1562 16.9601C17.1562 16.9836 17.1606 17.007 17.1606 17.0351C17.1549 17.8742 16.4028 18.4414 16.0616 18.6664H16.0629ZM19.807 17.7523C19.7195 17.6867 19.7327 17.4664 20.0258 16.782C20.1395 16.5148 20.4016 16.0648 20.857 15.6336C20.9086 15.7968 20.9366 15.9675 20.9402 16.1398C20.9358 17.1945 20.2314 17.5882 19.8075 17.7523H19.807Z" fill="#C76494"/>
</svg>
